<?xml version="1.0" encoding="UTF-8"?>
<svg width="178px" height="55px" viewBox="0 0 178 55" version="1.1" xmlns="http://www.w3.org/2000/svg" xmlns:xlink="http://www.w3.org/1999/xlink">
    <!-- Generator: Sketch 50 (54983) - http://www.bohemiancoding.com/sketch -->
    <title>logo</title>
    <desc>Created with Sketch.</desc>
    <defs></defs>
    <g id="Design" stroke="none" stroke-width="1" fill="none" fill-rule="evenodd">
        <g id="Desktop" transform="translate(-171.000000, -80.000000)">
            <g id="logo" transform="translate(171.000000, 80.000000)">
                <path d="M5.85114833,39.4390363 L6.86099119,39.555853 C6.6233811,40.6656121 5.62343867,42.2231687 3.41564496,42.2231687 C1.31675588,42.2231687 0,40.7629594 0,38.6115843 C0,36.469944 1.31675588,35 3.53445001,35 C5.1977206,35 6.25706556,35.788513 6.72238531,37.1027014 L5.78184539,37.2876612 C5.53433488,36.5186177 4.83140505,35.7301046 3.52454959,35.7301046 C1.93058194,35.7301046 1.0296437,36.8885374 1.0296437,38.5629107 C1.0296437,40.5293259 2.12859034,41.4541251 3.53445001,41.4541251 C4.62349623,41.4541251 5.62343867,40.8311025 5.85114833,39.4390363 Z M13.5932769,42.0479435 L12.4844299,42.0479435 L10.5736488,39.1275249 L8.77177229,39.1275249 L8.77177229,42.0479435 L7.86093363,42.0479435 L7.86093363,35.1752251 L11.0092673,35.1752251 C12.345824,35.1752251 13.2764635,35.7982477 13.2764635,37.1805792 C13.2764635,38.0177659 12.9101479,38.8646873 11.6329937,39.0691166 L13.5932769,42.0479435 Z M8.77177229,38.3584814 L10.8310597,38.3584814 C11.6329937,38.3584814 12.3557244,38.1248479 12.3557244,37.1805792 C12.3557244,36.4115357 11.850803,35.9345339 10.9597651,35.9345339 L8.77177229,35.9345339 L8.77177229,38.3584814 Z M19.6226328,42.0479435 L14.6922236,42.0479435 L14.6922236,35.1752251 L19.5038278,35.1752251 L19.5038278,35.9832076 L15.5832614,35.9832076 L15.5832614,38.1053784 L18.9890059,38.1053784 L18.9890059,38.9036262 L15.5832614,38.9036262 L15.5832614,41.2496958 L19.6226328,41.2496958 L19.6226328,42.0479435 Z M25.9688022,42.0479435 L24.9886606,42.0479435 L24.2263282,39.9452422 L21.5631152,39.9452422 L20.780982,42.0479435 L19.79094,42.0479435 L22.454153,35.1752251 L23.4243942,35.1752251 L25.9688022,42.0479435 Z M23.9491164,39.1761986 L22.9293732,36.3044536 L21.8601278,39.1761986 L23.9491164,39.1761986 Z M30.3051862,35.9734729 L28.2161975,35.9734729 L28.2161975,42.0479435 L27.285558,42.0479435 L27.285558,35.9734729 L25.186669,35.9734729 L25.186669,35.1752251 L30.3051862,35.1752251 L30.3051862,35.9734729 Z M31.8496518,42.0479435 L30.9091118,42.0479435 L30.9091118,35.1752251 L31.8496518,35.1752251 L31.8496518,42.0479435 Z M38.9680539,42.0479435 L38.1265182,42.0479435 L34.2950555,36.4602093 C34.2950555,36.4602093 34.3841593,41.9116573 34.3841593,42.0479435 L33.5030219,42.0479435 L33.5030219,35.1752251 L34.3841593,35.1752251 L38.1661198,40.6850815 C38.1661198,40.6850815 38.1265182,35.3893891 38.1265182,35.1752251 L38.9680539,35.1752251 L38.9680539,42.0479435 Z M47.0863984,42.0479435 L46.274564,42.0479435 L46.274564,41.0842054 C46.0072526,41.5320029 45.1855178,42.2231687 43.7202556,42.2231687 C41.6411673,42.2231687 40.2452081,40.7726941 40.2452081,38.6991969 C40.2452081,36.3725967 41.8193749,35 43.848961,35 C44.9677085,35 46.3735682,35.4283281 47.0863984,36.9956194 L46.1161573,37.2389876 C45.8191446,36.3044536 44.9776089,35.7593088 43.8786623,35.7593088 C42.0767858,35.7593088 41.2748518,37.1805792 41.2748518,38.5921149 C41.2748518,40.5585301 42.5223047,41.4249209 43.8588615,41.4249209 C45.1459161,41.4249209 46.274564,40.6461426 46.274564,39.2832806 L46.274564,39.1859333 L43.8390606,39.1859333 L43.8390606,38.4168898 L47.0863984,38.4168898 L47.0863984,42.0479435 Z M50.8485581,35.1752251 L53.6206758,35.1752251 C55.3037472,35.1752251 56.5908018,36.3336578 56.5908018,38.6213191 C56.5908018,40.3346313 55.8779716,42.0479435 53.3533644,42.0479435 L50.8485581,42.0479435 L50.8485581,35.1752251 Z M51.8088989,35.9832076 L51.8088989,41.2496958 L53.462269,41.2496958 C54.9077304,41.2496958 55.6403615,40.237284 55.6403615,38.6115843 C55.6403615,37.1221708 54.9968342,35.9832076 53.4127669,35.9832076 L51.8088989,35.9832076 Z M58.6995913,42.0479435 L57.7590514,42.0479435 L57.7590514,35.1752251 L58.6995913,35.1752251 L58.6995913,42.0479435 Z M66.7090313,42.0479435 L65.8971968,42.0479435 L65.8971968,41.0842054 C65.6298855,41.5320029 64.8081506,42.2231687 63.3428884,42.2231687 C61.2638002,42.2231687 59.8678409,40.7726941 59.8678409,38.6991969 C59.8678409,36.3725967 61.4420077,35 63.4715939,35 C64.5903413,35 65.996201,35.4283281 66.7090313,36.9956194 L65.7387901,37.2389876 C65.4417775,36.3044536 64.6002418,35.7593088 63.5012951,35.7593088 C61.6994186,35.7593088 60.8974846,37.1805792 60.8974846,38.5921149 C60.8974846,40.5585301 62.1449376,41.4249209 63.4814943,41.4249209 C64.7685489,41.4249209 65.8971968,40.6461426 65.8971968,39.2832806 L65.8971968,39.1859333 L63.4616934,39.1859333 L63.4616934,38.4168898 L66.7090313,38.4168898 L66.7090313,42.0479435 Z M69.2336384,42.0479435 L68.2930985,42.0479435 L68.2930985,35.1752251 L69.2336384,35.1752251 L69.2336384,42.0479435 Z M74.92638,35.9734729 L72.8373914,35.9734729 L72.8373914,42.0479435 L71.9067519,42.0479435 L71.9067519,35.9734729 L69.8078628,35.9734729 L69.8078628,35.1752251 L74.92638,35.1752251 L74.92638,35.9734729 Z M80.1241006,42.0479435 L79.143959,42.0479435 L78.3816267,39.9452422 L75.7184136,39.9452422 L74.9362804,42.0479435 L73.9462384,42.0479435 L76.6094515,35.1752251 L77.5796926,35.1752251 L80.1241006,42.0479435 Z M78.1044149,39.1761986 L77.0846716,36.3044536 L76.0154262,39.1761986 L78.1044149,39.1761986 Z M85.034709,42.0479435 L80.7181258,42.0479435 L80.7181258,35.1752251 L81.6487653,35.1752251 L81.6487653,41.2302263 L85.034709,41.2302263 L85.034709,42.0479435 Z M92.479825,42.0479435 L88.1632418,42.0479435 L88.1632418,35.1752251 L89.0938813,35.1752251 L89.0938813,41.2302263 L92.479825,41.2302263 L92.479825,42.0479435 Z M98.1626662,42.0479435 L93.232257,42.0479435 L93.232257,35.1752251 L98.0438612,35.1752251 L98.0438612,35.9832076 L94.1232948,35.9832076 L94.1232948,38.1053784 L97.5290393,38.1053784 L97.5290393,38.9036262 L94.1232948,38.9036262 L94.1232948,41.2496958 L98.1626662,41.2496958 L98.1626662,42.0479435 Z M104.508836,42.0479435 L103.528694,42.0479435 L102.766362,39.9452422 L100.103149,39.9452422 L99.3210154,42.0479435 L98.3309734,42.0479435 L100.994186,35.1752251 L101.964428,35.1752251 L104.508836,42.0479435 Z M102.48915,39.1761986 L101.469407,36.3044536 L100.400161,39.1761986 L102.48915,39.1761986 Z M105.201865,35.1752251 L107.973983,35.1752251 C109.657054,35.1752251 110.944109,36.3336578 110.944109,38.6213191 C110.944109,40.3346313 110.231278,42.0479435 107.706671,42.0479435 L105.201865,42.0479435 L105.201865,35.1752251 Z M106.162206,35.9832076 L106.162206,41.2496958 L107.815576,41.2496958 C109.261037,41.2496958 109.993668,40.237284 109.993668,38.6115843 C109.993668,37.1221708 109.350141,35.9832076 107.766074,35.9832076 L106.162206,35.9832076 Z M117.161573,42.0479435 L112.231163,42.0479435 L112.231163,35.1752251 L117.042768,35.1752251 L117.042768,35.9832076 L113.122201,35.9832076 L113.122201,38.1053784 L116.527946,38.1053784 L116.527946,38.9036262 L113.122201,38.9036262 L113.122201,41.2496958 L117.161573,41.2496958 L117.161573,42.0479435 Z M124.151269,42.0479435 L123.042422,42.0479435 L121.131641,39.1275249 L119.329765,39.1275249 L119.329765,42.0479435 L118.418926,42.0479435 L118.418926,35.1752251 L121.56726,35.1752251 C122.903816,35.1752251 123.834456,35.7982477 123.834456,37.1805792 C123.834456,38.0177659 123.46814,38.8646873 122.190986,39.0691166 L124.151269,42.0479435 Z M119.329765,38.3584814 L121.389052,38.3584814 C122.190986,38.3584814 122.913717,38.1248479 122.913717,37.1805792 C122.913717,36.4115357 122.408795,35.9345339 121.517757,35.9345339 L119.329765,35.9345339 L119.329765,38.3584814 Z M124.834398,39.8478949 L125.834341,39.7213434 C125.844241,39.9939158 125.903644,41.5027987 127.844126,41.5027987 C128.428251,41.5027987 129.5866,41.2789 129.5866,40.130202 C129.5866,39.3611584 129.012376,39.1372597 128.259944,38.9912387 L127.626317,38.8646873 C126.05215,38.553176 125.171013,38.0567048 125.171013,36.9080068 C125.171013,36.362862 125.418523,35.9053298 125.834341,35.5646143 C126.507569,35.0194695 127.309503,35 127.646118,35 C128.339147,35 129.012376,35.0876126 129.576699,35.5159406 C130.190526,35.9734729 130.348932,36.469944 130.467737,37.1124361 L129.527197,37.1708445 C129.527197,36.7814553 129.309388,35.7106352 127.725321,35.7106352 C127.061993,35.7106352 126.131353,35.9442687 126.131353,36.7911901 C126.131353,37.4531516 126.735279,37.6867851 127.527313,37.871745 L128.804467,38.1735215 C129.131181,38.2513994 130.586542,38.5629107 130.586542,40.0717936 C130.586542,40.344366 130.546941,40.9576539 130.002418,41.4833293 C129.616301,41.853249 128.982674,42.2231687 127.794624,42.2231687 C127.566914,42.2231687 126.616474,42.2134339 125.883843,41.746167 C124.953203,41.1523485 124.864099,40.1399367 124.834398,39.8478949 Z M4.77200253,48.7697737 L1.21775168,48.7697737 L1.21775168,50.7945972 L4.52449202,50.7945972 L4.52449202,51.592845 L1.21775168,51.592845 L1.21775168,54.8247749 L0.287112185,54.8247749 L0.287112185,47.9520565 L4.77200253,47.9520565 L4.77200253,48.7697737 Z M12.2270189,51.3300073 C12.2270189,53.0043806 11.2963794,55 8.68266851,55 C6.87089161,55 5.18782018,53.8415673 5.18782018,51.3786809 C5.18782018,48.867121 6.92039371,47.7768313 8.71236977,47.7768313 C10.8409601,47.7768313 12.2270189,49.2467754 12.2270189,51.3300073 Z M6.19766304,51.3884157 C6.19766304,53.1601363 7.1580038,54.2796301 8.73217061,54.2796301 C10.1182294,54.2796301 11.2171761,53.3645656 11.2171761,51.3300073 C11.2171761,49.9671453 10.5934496,48.5166707 8.71236977,48.5166707 C6.86099119,48.5166707 6.19766304,49.9574106 6.19766304,51.3884157 Z M19.2365164,54.8247749 L18.1276694,54.8247749 L16.2168883,51.9043563 L14.4150118,51.9043563 L14.4150118,54.8247749 L13.5041731,54.8247749 L13.5041731,47.9520565 L16.6525068,47.9520565 C17.9890635,47.9520565 18.919703,48.5750791 18.919703,49.9574106 C18.919703,50.7945972 18.5533874,51.6415186 17.2762332,51.8459479 L19.2365164,54.8247749 Z M14.4150118,51.1353127 L16.4742992,51.1353127 C17.2762332,51.1353127 17.9989639,50.9016792 17.9989639,49.9574106 C17.9989639,49.188367 17.4940425,48.7113653 16.6030047,48.7113653 L14.4150118,48.7113653 L14.4150118,51.1353127 Z M26.8499396,48.7503042 L24.7609509,48.7503042 L24.7609509,54.8247749 L23.8303114,54.8247749 L23.8303114,48.7503042 L21.7314223,48.7503042 L21.7314223,47.9520565 L26.8499396,47.9520565 L26.8499396,48.7503042 Z M33.7208312,51.3300073 C33.7208312,53.0043806 32.7901917,55 30.1764807,55 C28.3647039,55 26.6816324,53.8415673 26.6816324,51.3786809 C26.6816324,48.867121 28.414206,47.7768313 30.206182,47.7768313 C32.3347723,47.7768313 33.7208312,49.2467754 33.7208312,51.3300073 Z M27.6914753,51.3884157 C27.6914753,53.1601363 28.651816,54.2796301 30.2259828,54.2796301 C31.6120417,54.2796301 32.7109883,53.3645656 32.7109883,51.3300073 C32.7109883,49.9671453 32.0872618,48.5166707 30.206182,48.5166707 C28.3548034,48.5166707 27.6914753,49.9574106 27.6914753,51.3884157 Z M41.6114661,54.8247749 L40.6808266,54.8247749 C40.6808266,54.639815 40.809532,49.0618155 40.809532,49.0618155 L38.6017383,54.8247749 L37.8790077,54.8247749 L35.7108156,49.1494281 C35.7108156,49.1494281 35.8098198,54.6203456 35.8098198,54.8247749 L34.8989812,54.8247749 L34.8989812,47.9520565 L36.1068324,47.9520565 L38.2453232,53.5884643 L40.4036148,47.9520565 L41.6114661,47.9520565 L41.6114661,54.8247749 Z M49.8189144,51.3300073 C49.8189144,53.0043806 48.8882749,55 46.274564,55 C44.4627871,55 42.7797157,53.8415673 42.7797157,51.3786809 C42.7797157,48.867121 44.5122892,47.7768313 46.3042652,47.7768313 C48.4328556,47.7768313 49.8189144,49.2467754 49.8189144,51.3300073 Z M43.7895585,51.3884157 C43.7895585,53.1601363 44.7498993,54.2796301 46.3240661,54.2796301 C47.7101249,54.2796301 48.8090715,53.3645656 48.8090715,51.3300073 C48.8090715,49.9671453 48.1853451,48.5166707 46.3042652,48.5166707 C44.4528867,48.5166707 43.7895585,49.9574106 43.7895585,51.3884157 Z M56.8284119,54.8247749 L55.7195648,54.8247749 L53.8087837,51.9043563 L52.0069073,51.9043563 L52.0069073,54.8247749 L51.0960686,54.8247749 L51.0960686,47.9520565 L54.2444022,47.9520565 C55.580959,47.9520565 56.5115985,48.5750791 56.5115985,49.9574106 C56.5115985,50.7945972 56.1452829,51.6415186 54.8681287,51.8459479 L56.8284119,54.8247749 Z M52.0069073,51.1353127 L54.0661947,51.1353127 C54.8681287,51.1353127 55.5908594,50.9016792 55.5908594,49.9574106 C55.5908594,49.188367 55.0859379,48.7113653 54.1949001,48.7113653 L52.0069073,48.7113653 L52.0069073,51.1353127 Z M63.6498014,54.8247749 L62.5409544,54.8247749 L60.6301733,51.9043563 L58.8282968,51.9043563 L58.8282968,54.8247749 L57.9174581,54.8247749 L57.9174581,47.9520565 L61.0657917,47.9520565 C62.4023485,47.9520565 63.332988,48.5750791 63.332988,49.9574106 C63.332988,50.7945972 62.9666724,51.6415186 61.6895182,51.8459479 L63.6498014,54.8247749 Z M58.8282968,51.1353127 L60.8875842,51.1353127 C61.6895182,51.1353127 62.4122489,50.9016792 62.4122489,49.9574106 C62.4122489,49.188367 61.9073275,48.7113653 61.0162896,48.7113653 L58.8282968,48.7113653 L58.8282968,51.1353127 Z M71.3028262,51.3300073 C71.3028262,53.0043806 70.3721867,55 67.7584758,55 C65.9466989,55 64.2636275,53.8415673 64.2636275,51.3786809 C64.2636275,48.867121 65.996201,47.7768313 67.7881771,47.7768313 C69.9167674,47.7768313 71.3028262,49.2467754 71.3028262,51.3300073 Z M65.2734703,51.3884157 C65.2734703,53.1601363 66.2338111,54.2796301 67.8079779,54.2796301 C69.1940367,54.2796301 70.2929834,53.3645656 70.2929834,51.3300073 C70.2929834,49.9671453 69.6692569,48.5166707 67.7881771,48.5166707 C65.9367985,48.5166707 65.2734703,49.9574106 65.2734703,51.3884157 Z M81.3319519,47.9520565 L79.1934611,54.8247749 L78.2826225,54.8247749 L76.4411443,49.1299586 L74.6590687,54.8247749 L73.7284292,54.8247749 L71.580038,47.9520565 L72.5601796,47.9520565 L74.2135498,53.6468727 L75.985725,47.9520565 L76.8965636,47.9520565 L78.7380418,53.6468727 L80.3716111,47.9520565 L81.3319519,47.9520565 Z M81.9358775,47.9520565 L82.9160191,47.9520565 L82.9160191,48.4582624 C82.9160191,49.1591628 82.7972141,49.8892675 82.5101019,50.5414943 L82.0447821,50.5414943 C82.2130893,50.0644926 82.371496,49.5290825 82.371496,49.0228766 L81.9358775,49.0228766 L81.9358775,47.9520565 Z M83.7476544,52.6247262 L84.7475968,52.4981747 C84.7574973,52.7707471 84.8168998,54.2796301 86.7573821,54.2796301 C87.3415069,54.2796301 88.4998561,54.0557313 88.4998561,52.9070333 C88.4998561,52.1379898 87.9256317,51.914091 87.1731998,51.7680701 L86.5395729,51.6415186 C84.9654061,51.3300073 84.0842687,50.8335361 84.0842687,49.6848382 C84.0842687,49.1396934 84.3317792,48.6821611 84.7475968,48.3414456 C85.4208254,47.7963008 86.2227595,47.7768313 86.5593737,47.7768313 C87.2524032,47.7768313 87.9256317,47.8644439 88.4899557,48.292772 C89.1037817,48.7503042 89.2621884,49.2467754 89.3809935,49.8892675 L88.4404536,49.9476758 C88.4404536,49.5582867 88.2226443,48.4874665 86.6385771,48.4874665 C85.9752489,48.4874665 85.0446094,48.7211 85.0446094,49.5680214 C85.0446094,50.229983 85.6485351,50.4636165 86.4405687,50.6485763 L87.7177229,50.9503529 C88.0444368,51.0282307 89.4997985,51.339742 89.4997985,52.848625 C89.4997985,53.1211974 89.4601969,53.7344853 88.9156737,54.2601606 C88.5295574,54.6300803 87.8959305,55 86.70788,55 C86.4801704,55 85.52973,54.9902653 84.7970989,54.5229983 C83.8664594,53.9291798 83.7773557,52.9167681 83.7476544,52.6247262 Z M92.6382317,52.6247262 L93.6381742,52.4981747 C93.6480746,52.7707471 93.7074771,54.2796301 95.6479595,54.2796301 C96.2320843,54.2796301 97.3904334,54.0557313 97.3904334,52.9070333 C97.3904334,52.1379898 96.8162091,51.914091 96.0637771,51.7680701 L95.4301502,51.6415186 C93.8559834,51.3300073 92.974846,50.8335361 92.974846,49.6848382 C92.974846,49.1396934 93.2223565,48.6821611 93.6381742,48.3414456 C94.3114028,47.7963008 95.1133368,47.7768313 95.4499511,47.7768313 C96.1429805,47.7768313 96.8162091,47.8644439 97.380533,48.292772 C97.9943591,48.7503042 98.1527658,49.2467754 98.2715708,49.8892675 L97.3310309,49.9476758 C97.3310309,49.5582867 97.1132217,48.4874665 95.5291544,48.4874665 C94.8658263,48.4874665 93.9351868,48.7211 93.9351868,49.5680214 C93.9351868,50.229983 94.5391124,50.4636165 95.331146,50.6485763 L96.6083002,50.9503529 C96.9350141,51.0282307 98.3903759,51.339742 98.3903759,52.848625 C98.3903759,53.1211974 98.3507742,53.7344853 97.8062511,54.2601606 C97.4201347,54.6300803 96.7865078,55 95.5984574,55 C95.3707477,55 94.4203074,54.9902653 93.6876763,54.5229983 C92.7570368,53.9291798 92.667933,52.9167681 92.6382317,52.6247262 Z M106.429517,51.3300073 C106.429517,53.0043806 105.498878,55 102.885167,55 C101.07339,55 99.3903183,53.8415673 99.3903183,51.3786809 C99.3903183,48.867121 101.122892,47.7768313 102.914868,47.7768313 C105.043458,47.7768313 106.429517,49.2467754 106.429517,51.3300073 Z M100.400161,51.3884157 C100.400161,53.1601363 101.360502,54.2796301 102.934669,54.2796301 C104.320728,54.2796301 105.419674,53.3645656 105.419674,51.3300073 C105.419674,49.9671453 104.795948,48.5166707 102.914868,48.5166707 C101.063489,48.5166707 100.400161,49.9574106 100.400161,51.3884157 Z M113.270707,52.2158676 L114.28055,52.3326844 C114.04294,53.4424434 113.042998,55 110.835204,55 C108.736315,55 107.419559,53.5397907 107.419559,51.3884157 C107.419559,49.2467754 108.736315,47.7768313 110.954009,47.7768313 C112.61728,47.7768313 113.676625,48.5653444 114.141944,49.8795327 L113.201404,50.0644926 C112.953894,49.295449 112.250964,48.506936 110.944109,48.506936 C109.350141,48.506936 108.449203,49.6653687 108.449203,51.339742 C108.449203,53.3061572 109.548149,54.2309564 110.954009,54.2309564 C112.043055,54.2309564 113.042998,53.6079338 113.270707,52.2158676 Z M116.112128,54.8247749 L115.171588,54.8247749 L115.171588,47.9520565 L116.112128,47.9520565 L116.112128,54.8247749 Z M122.854314,54.8247749 L121.874173,54.8247749 L121.11184,52.7220735 L118.448627,52.7220735 L117.666494,54.8247749 L116.676452,54.8247749 L119.339665,47.9520565 L120.309906,47.9520565 L122.854314,54.8247749 Z M120.834628,51.9530299 L119.814885,49.081285 L118.74564,51.9530299 L120.834628,51.9530299 Z M127.764923,54.8247749 L123.448339,54.8247749 L123.448339,47.9520565 L124.378979,47.9520565 L124.378979,54.0070577 L127.764923,54.0070577 L127.764923,54.8247749 Z M136.556496,52.2158676 L137.566339,52.3326844 C137.328728,53.4424434 136.328786,55 134.120992,55 C132.022103,55 130.705347,53.5397907 130.705347,51.3884157 C130.705347,49.2467754 132.022103,47.7768313 134.239797,47.7768313 C135.903068,47.7768313 136.962413,48.5653444 137.427733,49.8795327 L136.487193,50.0644926 C136.239682,49.295449 135.536752,48.506936 134.229897,48.506936 C132.635929,48.506936 131.734991,49.6653687 131.734991,51.339742 C131.734991,53.3061572 132.833938,54.2309564 134.239797,54.2309564 C135.328844,54.2309564 136.328786,53.6079338 136.556496,52.2158676 Z M144.239222,54.8247749 L143.298682,54.8247749 L143.298682,51.6804575 L139.496921,51.6804575 L139.496921,54.8247749 L138.576181,54.8247749 L138.576181,47.9520565 L139.496921,47.9520565 L139.496921,50.8724751 L143.298682,50.8724751 L143.298682,47.9520565 L144.239222,47.9520565 L144.239222,54.8247749 Z M151.090313,54.8247749 L150.110171,54.8247749 L149.347839,52.7220735 L146.684626,52.7220735 L145.902492,54.8247749 L144.91245,54.8247749 L147.575663,47.9520565 L148.545905,47.9520565 L151.090313,54.8247749 Z M149.070627,51.9530299 L148.050884,49.081285 L146.981638,51.9530299 L149.070627,51.9530299 Z M157.248374,54.8247749 L156.406838,54.8247749 L152.575376,49.2370406 C152.575376,49.2370406 152.664479,54.6884887 152.664479,54.8247749 L151.783342,54.8247749 L151.783342,47.9520565 L152.664479,47.9520565 L156.44644,53.4619129 C156.44644,53.4619129 156.406838,48.1662205 156.406838,47.9520565 L157.248374,47.9520565 L157.248374,54.8247749 Z M165.366718,54.8247749 L164.554884,54.8247749 L164.554884,53.8610367 C164.287573,54.3088343 163.465838,55 162.000576,55 C159.921487,55 158.525528,53.5495254 158.525528,51.4760282 C158.525528,49.1494281 160.099695,47.7768313 162.129281,47.7768313 C163.248029,47.7768313 164.653888,48.2051594 165.366718,49.7724507 L164.396477,50.0158189 C164.099465,49.081285 163.257929,48.5361402 162.158982,48.5361402 C160.357106,48.5361402 159.555172,49.9574106 159.555172,51.3689462 C159.555172,53.3353614 160.802625,54.2017523 162.139181,54.2017523 C163.426236,54.2017523 164.554884,53.422974 164.554884,52.0601119 L164.554884,51.9627647 L162.119381,51.9627647 L162.119381,51.1937211 L165.366718,51.1937211 L165.366718,54.8247749 Z M172,54.8247749 L167.069591,54.8247749 L167.069591,47.9520565 L171.881195,47.9520565 L171.881195,48.7600389 L167.960629,48.7600389 L167.960629,50.8822098 L171.366373,50.8822098 L171.366373,51.6804575 L167.960629,51.6804575 L167.960629,54.0265271 L172,54.0265271 L172,54.8247749 Z" id="Creating-digital-lea" fill="#272727"></path>
                <path d="M1,0 L18.3824968,0 L18.3824968,4.41657335 L6.64450082,4.41657335 L6.64450082,9.22284434 L17.452437,9.22284434 L17.452437,13.6718925 L6.64450082,13.6718925 L6.64450082,22.9272116 L1,22.9272116 L1,0 Z M34.7387208,22.9272116 L29.7997826,22.9272116 L29.7997826,21.3359462 C29.3507882,21.9854423 27.6830948,23.4143337 24.9249864,23.4143337 C21.2368183,23.4143337 19.6653379,21.5307951 19.6653379,17.3415454 L19.6653379,5.97536394 L24.6363472,5.97536394 L24.6363472,16.8544233 C24.6363472,17.9910414 25.0211995,19.3549832 27.0096032,19.3549832 C28.9980069,19.3549832 29.8318536,18.1209406 29.8318536,16.5621501 L29.8318536,5.97536394 L34.7387208,5.97536394 L34.7387208,22.9272116 Z M47.2784925,9.45016797 L44.0072477,9.45016797 L44.0072477,17.568869 C44.0072477,18.7054871 44.5203841,18.9652856 45.2900888,18.9652856 C45.6428701,18.9652856 47.0219243,18.9328108 47.0219243,18.9328108 L47.0219243,22.7973124 C46.701214,22.862262 45.7070121,23.0571109 43.9110346,23.0571109 C41.2170683,23.0571109 39.1324515,22.212766 39.1324515,18.2508399 L39.1324515,9.41769317 L36.6950535,9.41769317 L36.6950535,6.36506159 L39.1324515,6.36506159 L39.1324515,1.07166853 L44.0072477,1.07166853 L44.0072477,6.39753639 L47.2784925,6.39753639 L47.2784925,9.45016797 Z M64.1799239,22.9272116 L59.2409857,22.9272116 L59.2409857,21.3359462 C58.7919913,21.9854423 57.1242979,23.4143337 54.3661895,23.4143337 C50.6780214,23.4143337 49.106541,21.5307951 49.106541,17.3415454 L49.106541,5.97536394 L54.0775503,5.97536394 L54.0775503,16.8544233 C54.0775503,17.9910414 54.4624026,19.3549832 56.4508063,19.3549832 C58.43921,19.3549832 59.2730567,18.1209406 59.2730567,16.5621501 L59.2730567,5.97536394 L64.1799239,5.97536394 L64.1799239,22.9272116 Z M67.9322341,5.97536394 L72.7108172,5.97536394 L72.7108172,7.72900336 C73.1277405,7.37178052 73.5767349,6.91713326 74.6671498,6.462486 C76.014133,5.91041433 76.9441928,5.81298992 77.5535423,5.78051512 L77.5535423,10.1970885 L75.9179199,10.4568869 C73.3201667,10.8790594 72.8391013,11.5610302 72.8391013,13.3796193 L72.8391013,22.9272116 L67.9322341,22.9272116 L67.9322341,5.97536394 Z M95.1926074,15.4904815 L83.2301142,15.4904815 L83.2301142,15.6853303 C83.2301142,17.9585666 84.7695235,19.712206 87.0465664,19.712206 C89.3877514,19.712206 90.7668056,18.0884658 91.279942,16.6920493 L95.0001812,18.6405375 C93.1079906,21.8555431 90.125385,23.5442329 86.6617141,23.5442329 C81.5624207,23.5442329 78.1949629,20.2642777 78.1949629,14.7760358 C78.1949629,10.5218365 80.2475086,5.45576708 86.7899982,5.45576708 C93.0759196,5.45576708 95.1926074,10.5543113 95.1926074,15.2631579 L95.1926074,15.4904815 Z M83.2301142,12.3729003 L90.093314,12.3729003 C90.029172,10.4893617 88.7784019,9.02799552 86.7579272,9.02799552 C84.4167422,9.02799552 83.4546113,11.0089586 83.2301142,12.3729003 Z M107.796521,5.97536394 L112.44682,5.97536394 L112.44682,22.5050392 C112.44682,26.9216125 109.592499,29 104.140424,29 C99.6184091,29 96.4754485,27.1489362 96.4754485,23.4468085 L96.4754485,22.9272116 L101.574742,22.9272116 C101.574742,24.0638298 102.055807,25.68757 104.621489,25.68757 C106.449538,25.68757 107.539953,24.9081747 107.539953,22.9921613 L107.539953,20.6864502 C106.417467,21.4333707 105.391194,22.1478163 103.146222,22.1478163 C100.420185,22.1478163 96.2188802,20.556551 96.2188802,13.9641657 C96.2188802,8.8980963 99.1373437,5.68309071 103.146222,5.68309071 C105.58362,5.68309071 106.898532,6.65733483 107.796521,7.53415454 L107.796521,5.97536394 Z M107.539953,13.9316909 C107.539953,11.7883539 107.219243,9.41769317 104.33285,9.41769317 C101.478529,9.41769317 101.318174,12.6976484 101.318174,13.7693169 C101.318174,16.1724524 101.767168,18.3482643 104.461134,18.3482643 C107.379598,18.3482643 107.539953,15.6528555 107.539953,13.9316909 Z M132.972278,14.4512878 C132.972278,19.9395297 129.572749,23.4468085 123.960319,23.4468085 C119.598659,23.4468085 114.980431,21.043673 114.980431,14.3538634 C114.980431,10.0671892 117.546113,5.45576708 123.799964,5.45576708 C130.823519,5.45576708 132.972278,10.3919373 132.972278,14.4512878 Z M127.969197,14.6136618 C127.969197,11.0089586 126.461859,9.41769317 123.767893,9.41769317 C121.907773,9.41769317 119.95144,10.8465845 119.95144,14.3863382 C119.95144,17.2116461 121.138068,19.4524076 124.024461,19.4524076 C126.750498,19.4524076 127.969197,17.1466965 127.969197,14.6136618 Z M152.375249,14.4512878 C152.375249,19.9395297 148.97572,23.4468085 143.36329,23.4468085 C139.001631,23.4468085 134.383403,21.043673 134.383403,14.3538634 C134.383403,10.0671892 136.949085,5.45576708 143.202935,5.45576708 C150.22649,5.45576708 152.375249,10.3919373 152.375249,14.4512878 Z M147.372169,14.6136618 C147.372169,11.0089586 145.864831,9.41769317 143.170864,9.41769317 C141.310745,9.41769317 139.354412,10.8465845 139.354412,14.3863382 C139.354412,17.2116461 140.54104,19.4524076 143.427433,19.4524076 C146.15347,19.4524076 147.372169,17.1466965 147.372169,14.6136618 Z M169.950172,22.9272116 L165.460228,22.9272116 L165.460228,21.3359462 C163.63218,23.2194849 161.900344,23.3818589 161.002355,23.3818589 C157.057619,23.3818589 153.754303,20.2967525 153.754303,14.581187 C153.754303,9.54759239 156.191701,5.52071669 160.745787,5.52071669 C163.086972,5.52071669 164.530169,6.72228443 165.171589,7.2418813 L165.171589,0 L169.950172,0 L169.950172,22.9272116 Z M158.757384,14.5487122 C158.757384,16.0425532 159.078094,19.6797312 161.932415,19.6797312 C165.139518,19.6797312 165.267802,15.3930571 165.267802,14.581187 C165.267802,12.4703247 164.88295,9.25531915 162.188984,9.25531915 C159.559159,9.25531915 158.757384,12.1455767 158.757384,14.5487122 Z M178,22.9272116 L172.932778,22.9272116 L172.932778,17.5039194 L178,17.5039194 L178,22.9272116 Z" id="Futuregood." fill="#5D27FF"></path>
            </g>
        </g>
    </g>
</svg>