<svg width="178" height="55" viewBox="0 0 178 55" xmlns="http://www.w3.org/2000/svg"><g fill="none" fill-rule="evenodd"><path d="M5.851 39.439l1.01.117c-.238 1.11-1.238 2.667-3.445 2.667-2.1 0-3.416-1.46-3.416-3.611C0 36.47 1.317 35 3.534 35c1.664 0 2.723.789 3.188 2.103l-.94.185c-.248-.77-.95-1.558-2.257-1.558-1.594 0-2.495 1.159-2.495 2.833 0 1.966 1.099 2.891 2.504 2.891 1.09 0 2.09-.623 2.317-2.015zm7.742 2.609h-1.109l-1.91-2.92H8.772v2.92H7.86v-6.873h3.148c1.337 0 2.267.623 2.267 2.006 0 .837-.366 1.684-1.643 1.888l1.96 2.979zm-4.821-3.69h2.06c.801 0 1.524-.233 1.524-1.177 0-.77-.505-1.246-1.396-1.246H8.772v2.423zm10.85 3.69h-4.93v-6.873h4.812v.808h-3.92v2.122h3.405v.799h-3.406v2.346h4.04v.798zm6.347 0h-.98l-.763-2.103h-2.663l-.782 2.103h-.99l2.663-6.873h.97l2.545 6.873zm-2.02-2.872l-1.02-2.872-1.069 2.872h2.09zm6.356-3.203h-2.089v6.075h-.93v-6.075h-2.1v-.798h5.12v.798zm1.545 6.075h-.94v-6.873h.94v6.873zm7.118 0h-.841l-3.832-5.588s.09 5.452.09 5.588h-.882v-6.873h.881l3.782 5.51s-.04-5.296-.04-5.51h.842v6.873zm8.118 0h-.811v-.964c-.268.448-1.09 1.14-2.555 1.14-2.079 0-3.475-1.451-3.475-3.525 0-2.326 1.574-3.699 3.604-3.699 1.119 0 2.525.428 3.237 1.996l-.97.243c-.297-.935-1.138-1.48-2.237-1.48-1.802 0-2.604 1.422-2.604 2.833 0 1.967 1.247 2.833 2.584 2.833 1.287 0 2.416-.779 2.416-2.142v-.097h-2.436v-.77h3.247v3.632zm3.763-6.873h2.772c1.683 0 2.97 1.159 2.97 3.446 0 1.714-.713 3.427-3.238 3.427H50.85v-6.873zm.96.808v5.267h1.653c1.446 0 2.178-1.013 2.178-2.638 0-1.49-.643-2.629-2.227-2.629h-1.604zm6.89 6.065h-.94v-6.873h.94v6.873zm8.01 0h-.812v-.964c-.267.448-1.089 1.14-2.554 1.14-2.08 0-3.475-1.451-3.475-3.525 0-2.326 1.574-3.699 3.604-3.699 1.118 0 2.524.428 3.237 1.996l-.97.243c-.297-.935-1.139-1.48-2.238-1.48-1.802 0-2.604 1.422-2.604 2.833 0 1.967 1.248 2.833 2.584 2.833 1.288 0 2.416-.779 2.416-2.142v-.097h-2.435v-.77h3.247v3.632zm2.525 0h-.94v-6.873h.94v6.873zm5.692-6.075h-2.089v6.075h-.93v-6.075h-2.1v-.798h5.12v.798zm5.198 6.075h-.98l-.762-2.103h-2.664l-.782 2.103h-.99l2.663-6.873h.97l2.545 6.873zm-2.02-2.872l-1.02-2.872-1.069 2.872h2.09zm6.93 2.872h-4.316v-6.873h.93v6.055h3.387v.818zm7.446 0h-4.317v-6.873h.93v6.055h3.387v.818zm5.683 0h-4.93v-6.873h4.81v.808h-3.92v2.122h3.406v.799h-3.406v2.346h4.04v.798zm6.346 0h-.98l-.763-2.103h-2.663l-.782 2.103h-.99l2.663-6.873h.97l2.545 6.873zm-2.02-2.872l-1.02-2.872-1.069 2.872h2.09zm2.713-4h2.772c1.683 0 2.97 1.158 2.97 3.445 0 1.714-.713 3.427-3.237 3.427h-2.505v-6.873zm.96.807v5.267h1.654c1.445 0 2.178-1.013 2.178-2.638 0-1.49-.644-2.629-2.228-2.629h-1.604zm11 6.065h-4.93v-6.873h4.81v.808h-3.92v2.122h3.406v.799h-3.406v2.346h4.04v.798zm6.99 0h-1.11l-1.91-2.92h-1.802v2.92h-.911v-6.873h3.148c1.337 0 2.267.623 2.267 2.006 0 .837-.366 1.684-1.643 1.888l1.96 2.979zm-4.822-3.69h2.06c.801 0 1.524-.233 1.524-1.177 0-.77-.505-1.246-1.396-1.246h-2.188v2.423zm5.504 1.49l1-.127c.01.273.07 1.782 2.01 1.782.584 0 1.743-.224 1.743-1.373 0-.769-.575-.993-1.327-1.139l-.634-.126c-1.574-.312-2.455-.808-2.455-1.957 0-.545.248-1.003.663-1.343.674-.546 1.476-.565 1.812-.565.693 0 1.366.088 1.93.516.615.457.773.954.892 1.596l-.94.059c0-.39-.219-1.46-1.803-1.46-.663 0-1.594.233-1.594 1.08 0 .662.604.896 1.396 1.08l1.277.303c.327.077 1.783.389 1.783 1.898 0 .272-.04.886-.585 1.411-.386.37-1.02.74-2.207.74-.228 0-1.179-.01-1.911-.477-.93-.594-1.02-1.606-1.05-1.898zM4.772 48.77H1.218v2.025h3.306v.798H1.218v3.232h-.93v-6.873h4.484v.818zm7.455 2.56c0 1.674-.93 3.67-3.544 3.67-1.812 0-3.495-1.158-3.495-3.621 0-2.512 1.732-3.602 3.524-3.602 2.129 0 3.515 1.47 3.515 3.553zm-6.03.058c0 1.772.961 2.892 2.535 2.892 1.386 0 2.485-.915 2.485-2.95 0-1.363-.624-2.813-2.505-2.813-1.851 0-2.514 1.44-2.514 2.871zm13.04 3.437h-1.11l-1.91-2.92h-1.802v2.92h-.91v-6.873h3.148c1.336 0 2.267.623 2.267 2.005 0 .838-.367 1.685-1.644 1.889l1.96 2.979zm-4.822-3.69h2.06c.801 0 1.524-.233 1.524-1.178 0-.769-.505-1.246-1.396-1.246h-2.188v2.424zM26.85 48.75H24.76v6.075h-.93V48.75h-2.1v-.798h5.119v.798zm6.87 2.58c0 1.674-.93 3.67-3.544 3.67-1.811 0-3.494-1.158-3.494-3.621 0-2.512 1.732-3.602 3.524-3.602 2.129 0 3.515 1.47 3.515 3.553zm-6.029.058c0 1.772.96 2.892 2.535 2.892 1.386 0 2.485-.915 2.485-2.95 0-1.363-.624-2.813-2.505-2.813-1.851 0-2.515 1.44-2.515 2.871zm13.92 3.437h-.93c0-.185.129-5.763.129-5.763l-2.208 5.763h-.723l-2.168-5.676s.099 5.471.099 5.676h-.911v-6.873h1.208l2.138 5.636 2.159-5.636h1.207v6.873zm8.208-3.495c0 1.674-.93 3.67-3.544 3.67-1.812 0-3.495-1.158-3.495-3.621 0-2.512 1.732-3.602 3.524-3.602 2.129 0 3.515 1.47 3.515 3.553zm-6.03.058c0 1.772.96 2.892 2.535 2.892 1.386 0 2.485-.915 2.485-2.95 0-1.363-.624-2.813-2.505-2.813-1.851 0-2.514 1.44-2.514 2.871zm13.04 3.437h-1.11l-1.91-2.92h-1.802v2.92h-.91v-6.873h3.147c1.337 0 2.268.623 2.268 2.005 0 .838-.367 1.685-1.644 1.889l1.96 2.979zm-4.822-3.69h2.06c.801 0 1.524-.233 1.524-1.178 0-.769-.505-1.246-1.396-1.246h-2.188v2.424zm11.643 3.69H62.54l-1.91-2.92h-1.803v2.92h-.91v-6.873h3.148c1.336 0 2.267.623 2.267 2.005 0 .838-.366 1.685-1.643 1.889l1.96 2.979zm-4.822-3.69h2.06c.802 0 1.524-.233 1.524-1.178 0-.769-.505-1.246-1.396-1.246h-2.188v2.424zm12.475.195c0 1.674-.93 3.67-3.545 3.67-1.811 0-3.494-1.158-3.494-3.621 0-2.512 1.732-3.602 3.524-3.602 2.129 0 3.515 1.47 3.515 3.553zm-6.03.058c0 1.772.96 2.892 2.535 2.892 1.386 0 2.485-.915 2.485-2.95 0-1.363-.624-2.813-2.505-2.813-1.851 0-2.515 1.44-2.515 2.871zm16.059-3.436l-2.139 6.873h-.91L76.44 49.13l-1.782 5.695h-.93l-2.149-6.873h.98l1.654 5.695 1.772-5.695h.91l1.842 5.695 1.634-5.695h.96zm.604 0h.98v.506c0 .701-.119 1.431-.406 2.083h-.465c.168-.477.326-1.012.326-1.518h-.435v-1.07zm1.812 4.673l1-.127c.01.273.069 1.782 2.01 1.782.584 0 1.742-.224 1.742-1.373 0-.769-.574-.993-1.327-1.139l-.633-.126c-1.575-.312-2.456-.808-2.456-1.957 0-.545.248-1.003.664-1.344.673-.545 1.475-.564 1.811-.564.693 0 1.367.087 1.931.516.614.457.772.954.891 1.596l-.94.059c0-.39-.218-1.46-1.802-1.46-.664 0-1.594.233-1.594 1.08 0 .662.604.896 1.396 1.08l1.277.302c.326.078 1.782.39 1.782 1.899 0 .272-.04.885-.584 1.411-.386.37-1.02.74-2.208.74-.228 0-1.178-.01-1.91-.477-.932-.594-1.02-1.606-1.05-1.898zm8.89 0l1-.127c.01.273.07 1.782 2.01 1.782.584 0 1.742-.224 1.742-1.373 0-.769-.574-.993-1.326-1.139l-.634-.126c-1.574-.312-2.455-.808-2.455-1.957 0-.545.247-1.003.663-1.344.673-.545 1.475-.564 1.812-.564.693 0 1.366.087 1.93.516.614.457.773.954.892 1.596l-.941.059c0-.39-.218-1.46-1.802-1.46-.663 0-1.594.233-1.594 1.08 0 .662.604.896 1.396 1.08l1.277.302c.327.078 1.782.39 1.782 1.899 0 .272-.04.885-.584 1.411-.386.37-1.02.74-2.208.74-.227 0-1.178-.01-1.91-.477-.931-.594-1.02-1.606-1.05-1.898zm13.792-1.295c0 1.674-.931 3.67-3.545 3.67-1.812 0-3.495-1.158-3.495-3.621 0-2.512 1.733-3.602 3.525-3.602 2.128 0 3.515 1.47 3.515 3.553zm-6.03.058c0 1.772.96 2.892 2.535 2.892 1.386 0 2.485-.915 2.485-2.95 0-1.363-.624-2.813-2.505-2.813-1.852 0-2.515 1.44-2.515 2.871zm12.87.828l1.01.117c-.237 1.11-1.237 2.667-3.445 2.667-2.099 0-3.415-1.46-3.415-3.612 0-2.141 1.316-3.611 3.534-3.611 1.663 0 2.723.788 3.188 2.103l-.94.184c-.248-.769-.951-1.557-2.258-1.557-1.594 0-2.495 1.158-2.495 2.833 0 1.966 1.1 2.891 2.505 2.891 1.09 0 2.089-.623 2.317-2.015zm2.842 2.609h-.94v-6.873h.94v6.873zm6.742 0h-.98l-.762-2.103h-2.663l-.783 2.103h-.99l2.664-6.873h.97l2.544 6.873zm-2.02-2.872l-1.02-2.872-1.068 2.872h2.089zm6.93 2.872h-4.316v-6.873h.931v6.055h3.386v.818zm8.792-2.61l1.01.118c-.237 1.11-1.237 2.667-3.445 2.667-2.099 0-3.416-1.46-3.416-3.612 0-2.141 1.317-3.611 3.535-3.611 1.663 0 2.722.788 3.188 2.103l-.94.184c-.248-.769-.951-1.557-2.258-1.557-1.594 0-2.495 1.158-2.495 2.833 0 1.966 1.099 2.891 2.505 2.891 1.089 0 2.089-.623 2.316-2.015zm7.683 2.61h-.94V51.68h-3.802v3.145h-.92v-6.873h.92v2.92h3.802v-2.92h.94v6.873zm6.851 0h-.98l-.762-2.103h-2.663l-.783 2.103h-.99l2.664-6.873h.97l2.544 6.873zm-2.02-2.872l-1.02-2.872-1.068 2.872h2.089zm8.178 2.872h-.841l-3.832-5.588s.09 5.451.09 5.588h-.882v-6.873h.881l3.782 5.51s-.04-5.296-.04-5.51h.842v6.873zm8.119 0h-.812v-.964c-.267.448-1.09 1.139-2.554 1.139-2.08 0-3.475-1.45-3.475-3.524 0-2.327 1.574-3.7 3.603-3.7 1.119 0 2.525.43 3.238 1.996l-.97.244c-.298-.935-1.14-1.48-2.238-1.48-1.802 0-2.604 1.421-2.604 2.833 0 1.966 1.248 2.833 2.584 2.833 1.287 0 2.416-.779 2.416-2.142v-.097h-2.436v-.77h3.248v3.632zm6.633 0h-4.93v-6.873h4.811v.808h-3.92v2.122h3.405v.798h-3.405v2.347H172v.798z" fill="#272727"/><path d="M1 0h17.382v4.417H6.645v4.806h10.807v4.449H6.645v9.255H1V0zm33.739 22.927h-4.94v-1.591c-.448.65-2.116 2.078-4.874 2.078-3.688 0-5.26-1.883-5.26-6.072V5.975h4.971v10.88c0 1.136.385 2.5 2.374 2.5 1.988 0 2.822-1.234 2.822-2.793V5.975h4.907v16.952zM47.279 9.45h-3.272v8.119c0 1.136.513 1.396 1.283 1.396.353 0 1.732-.032 1.732-.032v3.864c-.32.065-1.315.26-3.111.26-2.694 0-4.779-.844-4.779-4.806V9.418h-2.437V6.365h2.437V1.072h4.875v5.326h3.271V9.45zm16.9 13.477h-4.938v-1.591c-.449.65-2.117 2.078-4.875 2.078-3.688 0-5.26-1.883-5.26-6.072V5.975h4.972v10.88c0 1.136.384 2.5 2.373 2.5 1.988 0 2.822-1.234 2.822-2.793V5.975h4.907v16.952zm3.753-16.952h4.779V7.73c.417-.357.866-.812 1.956-1.267 1.347-.552 2.277-.649 2.887-.681v4.416l-1.636.26c-2.598.422-3.079 1.104-3.079 2.923v9.547h-4.907V5.975zm27.26 9.515H83.23v.195c0 2.274 1.54 4.027 3.817 4.027 2.34 0 3.72-1.624 4.233-3.02L95 18.641c-1.892 3.215-4.875 4.903-8.338 4.903-5.1 0-8.467-3.28-8.467-8.768 0-4.254 2.053-9.32 8.595-9.32 6.286 0 8.403 5.098 8.403 9.807v.227zM83.23 12.373h6.863c-.064-1.884-1.315-3.345-3.335-3.345-2.341 0-3.303 1.981-3.528 3.345zm24.567-6.398h4.65v16.53c0 4.417-2.855 6.495-8.307 6.495-4.522 0-7.665-1.851-7.665-5.553v-.52h5.1c0 1.137.48 2.76 3.046 2.76 1.829 0 2.919-.779 2.919-2.695v-2.306c-1.123.747-2.149 1.462-4.394 1.462-2.726 0-6.927-1.591-6.927-8.184 0-5.066 2.918-8.28 6.927-8.28 2.438 0 3.753.973 4.65 1.85V5.975zm-.257 7.957c0-2.144-.32-4.514-3.207-4.514-2.854 0-3.015 3.28-3.015 4.351 0 2.403.45 4.58 3.143 4.58 2.919 0 3.079-2.696 3.079-4.417zm25.432.52c0 5.488-3.4 8.995-9.012 8.995-4.361 0-8.98-2.403-8.98-9.093 0-4.287 2.566-8.898 8.82-8.898 7.024 0 9.172 4.936 9.172 8.995zm-5.003.162c0-3.605-1.507-5.196-4.201-5.196-1.86 0-3.817 1.429-3.817 4.968 0 2.826 1.187 5.066 4.073 5.066 2.726 0 3.945-2.305 3.945-4.838zm24.406-.163c0 5.489-3.4 8.996-9.012 8.996-4.361 0-8.98-2.403-8.98-9.093 0-4.287 2.566-8.898 8.82-8.898 7.023 0 9.172 4.936 9.172 8.995zm-5.003.163c0-3.605-1.507-5.196-4.201-5.196-1.86 0-3.817 1.429-3.817 4.968 0 2.826 1.187 5.066 4.073 5.066 2.726 0 3.945-2.305 3.945-4.838zm22.578 8.313h-4.49v-1.591c-1.828 1.883-3.56 2.046-4.458 2.046-3.944 0-7.248-3.085-7.248-8.8 0-5.034 2.438-9.061 6.992-9.061 2.341 0 3.784 1.201 4.426 1.72V0h4.778v22.927zm-11.193-8.378c0 1.494.321 5.13 3.175 5.13 3.208 0 3.336-4.286 3.336-5.098 0-2.11-.385-5.326-3.079-5.326-2.63 0-3.432 2.89-3.432 5.294zM178 22.927h-5.067v-5.423H178v5.423z" fill="#5D27FF"/></g></svg>